<svg width="77" height="107" viewBox="0 0 77 307" fill="none" xmlns="http://www.w3.org/2000/svg">
<path d="M63.248 88.08C56.4213 98.6614 43.3653 105.573 17.936 90.2133C19.8718 85.4547 20.7174 80.3229 20.4107 75.1947C19.6702 56.2407 16.1629 37.4967 10 19.5574C17.9144 17.3487 25.5138 14.1368 32.6133 10C45.8814 20.794 56.5794 34.407 63.9307 49.8507C70.4642 61.8217 70.2048 76.3499 63.248 88.08Z" fill="#9D27B0"/>
<path d="M63.9308 49.8507C56.5795 34.407 45.8815 20.794 32.6134 10C27.2451 13.1584 21.5626 15.7495 15.6577 17.7312C24.9195 27.127 32.5787 37.9773 38.3308 49.8507C44.8643 61.8217 44.6049 76.3499 37.6481 88.08C35.6307 91.3249 32.8951 94.0634 29.6524 96.0843C47.5297 103.107 57.5649 96.895 63.2481 88.08C70.2049 76.3499 70.4643 61.8217 63.9308 49.8507Z" fill="#6A1B9A"/>
<path d="M63.248 88.08C56.4213 98.6614 43.3653 105.573 17.936 90.2134C19.8718 85.4547 20.7174 80.3229 20.4107 75.1947C19.6702 56.2407 16.1629 37.4967 10 19.5574C17.9144 17.3487 25.5138 14.1368 32.6133 10C45.8814 20.7939 56.5794 34.407 63.9307 49.8507C70.4642 61.8217 70.2048 76.3499 63.248 88.08V88.08Z" stroke="black" stroke-width="15"/>
</svg>
