<svg width="186" height="119" viewBox="0 0 186 119" fill="none" xmlns="http://www.w3.org/2000/svg">
<path d="M178.045 64.6373C178.352 69.7655 177.507 74.8973 175.571 79.656C174.725 81.9861 173.578 84.1952 172.157 86.2267C170.257 89.0512 167.891 91.5327 165.16 93.5653C149.497 103.908 131.27 109.698 112.509 110.291C106.536 110.803 100.136 111.059 93.0534 111.059C85.9707 111.059 79.5707 110.803 73.5974 110.291C54.8371 109.698 36.6098 103.908 20.9467 93.5653C18.2158 91.5327 15.8497 89.0512 13.9494 86.2267C12.529 84.1952 11.3814 81.9861 10.536 79.656C8.60025 74.8973 7.75467 69.7655 8.06137 64.6373C8.80185 45.6833 12.3092 26.9394 18.472 9C42.8328 15.1735 67.9334 17.9305 93.0534 17.192C118.173 17.9305 143.274 15.1735 167.635 9C173.798 26.9394 177.305 45.6833 178.045 64.6373Z" fill="#E91E63"/>
<path d="M167.635 9C159.756 11.245 151.729 12.9331 143.613 14.0517C148.747 30.4573 151.716 47.4629 152.445 64.6373C152.752 69.7655 151.906 74.8973 149.971 79.656C149.125 81.9861 147.978 84.1952 146.557 86.2267C144.657 89.0512 142.291 91.5327 139.56 93.5653C123.897 103.908 105.67 109.698 86.9093 110.291C84.776 110.47 82.5061 110.581 80.2533 110.7C84.3066 110.914 88.505 111.059 93.0533 111.059C100.136 111.059 106.536 110.803 112.509 110.291C131.27 109.698 149.497 103.908 165.16 93.5653C167.891 91.5327 170.257 89.0512 172.157 86.2267C173.578 84.1952 174.725 81.9861 175.571 79.656C177.506 74.8973 178.352 69.7655 178.045 64.6373C177.305 45.6833 173.798 26.9394 167.635 9Z" fill="#AD1457"/>
<path d="M178.045 64.6373C178.352 69.7655 177.507 74.8973 175.571 79.656C174.725 81.9861 173.578 84.1952 172.157 86.2267C170.257 89.0512 167.891 91.5327 165.16 93.5653C149.497 103.908 131.27 109.698 112.509 110.291C106.536 110.803 100.136 111.059 93.0534 111.059C85.9707 111.059 79.5707 110.803 73.5974 110.291C54.8371 109.698 36.6098 103.908 20.9467 93.5653C18.2158 91.5327 15.8497 89.0512 13.9494 86.2267C12.529 84.1952 11.3814 81.9861 10.536 79.656C8.60025 74.8973 7.75467 69.7655 8.06137 64.6373C8.80185 45.6833 12.3092 26.9394 18.472 9C42.8328 15.1735 67.9334 17.9305 93.0534 17.192C118.173 17.9305 143.274 15.1735 167.635 9C173.798 26.9394 177.305 45.6833 178.045 64.6373Z" stroke="black" stroke-width="15"/>
<path d="M101.587 59.8587H84.52C79.8072 59.8587 75.9867 63.6792 75.9867 68.392C75.9867 73.1048 79.8072 76.9253 84.52 76.9253H101.587C106.299 76.9253 110.12 73.1048 110.12 68.392C110.12 63.6792 106.299 59.8587 101.587 59.8587Z" fill="black"/>
</svg>
