<svg width="272" height="221" viewBox="0 0 272 221" fill="none" xmlns="http://www.w3.org/2000/svg">
<path d="M264 110.4C264 145.557 264 176.619 233.195 195.051C226.095 199.188 218.496 202.399 210.581 204.608C186.221 210.782 161.12 213.539 136 212.8C110.88 213.539 85.7794 210.782 61.4187 204.608C53.5043 202.399 45.9048 199.188 38.8053 195.051C8 176.619 8 145.557 8 110.4C8 63.1254 48.0213 23.3601 102.379 11.5841C113.428 9.20845 124.698 8.00711 136 8.00009C142.017 7.99362 148.028 8.33552 154.005 9.02409C216.128 16.0214 264 58.6881 264 110.4Z" fill="#FFE0B2"/>
<path d="M154.005 9.02409C148.028 8.33552 142.016 7.99362 136 8.00009C131.947 8.00009 128.004 8.34996 124.053 8.64863C125.504 8.77663 126.972 8.85342 128.414 9.02409C190.528 16.0214 238.4 58.6881 238.4 110.4C238.4 145.557 238.4 176.619 207.595 195.051C200.495 199.188 192.896 202.399 184.981 204.608C164.81 209.887 144.05 212.582 123.2 212.629C127.33 212.732 131.571 212.8 136 212.8C161.12 213.539 186.221 210.782 210.581 204.608C218.496 202.399 226.095 199.188 233.195 195.051C264 176.619 264 145.557 264 110.4C264 58.6881 216.128 16.0214 154.005 9.02409Z" fill="#DFC49C"/>
<path d="M264 110.4C264 145.557 264 176.619 233.195 195.051C226.095 199.188 218.496 202.399 210.581 204.608C186.221 210.782 161.12 213.539 136 212.8C110.88 213.539 85.7794 210.782 61.4187 204.608C53.5043 202.399 45.9048 199.188 38.8053 195.051C8 176.619 8 145.557 8 110.4C8 63.1254 48.0213 23.3601 102.379 11.5841C113.428 9.20845 124.698 8.00711 136 8.00009C142.017 7.99362 148.028 8.33552 154.005 9.02409C216.128 16.0214 264 58.6881 264 110.4Z" stroke="black" stroke-width="15"/>
<path d="M80.5333 170.133C92.3154 170.133 101.867 160.582 101.867 148.8C101.867 137.018 92.3154 127.467 80.5333 127.467C68.7512 127.467 59.2 137.018 59.2 148.8C59.2 160.582 68.7512 170.133 80.5333 170.133Z" fill="#3F51B5"/>
<path d="M191.467 170.133C203.249 170.133 212.8 160.582 212.8 148.8C212.8 137.018 203.249 127.467 191.467 127.467C179.685 127.467 170.133 137.018 170.133 148.8C170.133 160.582 179.685 170.133 191.467 170.133Z" fill="#3F51B5"/>
<path d="M50.6666 170.133C50.6666 174.846 54.4871 178.667 59.2 178.667H101.867C106.579 178.667 110.4 174.846 110.4 170.133C110.365 167.317 108.915 164.706 106.543 163.187C109.037 158.8 110.365 153.847 110.4 148.8C110.4 132.305 97.0282 118.933 80.5333 118.933C64.0384 118.933 50.6666 132.305 50.6666 148.8C50.702 153.847 52.0299 158.8 54.5237 163.187C52.1511 164.706 50.7016 167.317 50.6666 170.133ZM80.5333 136C87.6025 136 93.3333 141.731 93.3333 148.8C93.3333 155.869 87.6025 161.6 80.5333 161.6C73.464 161.6 67.7333 155.869 67.7333 148.8C67.7333 141.731 73.464 136 80.5333 136Z" fill="black"/>
<path d="M161.6 170.133C161.6 174.846 165.421 178.667 170.133 178.667H212.8C217.513 178.667 221.333 174.846 221.333 170.133C221.298 167.317 219.849 164.706 217.476 163.187C219.97 158.8 221.298 153.847 221.333 148.8C221.333 132.305 207.962 118.933 191.467 118.933C174.972 118.933 161.6 132.305 161.6 148.8C161.635 153.847 162.963 158.8 165.457 163.187C163.085 164.706 161.635 167.317 161.6 170.133ZM191.467 136C198.536 136 204.267 141.731 204.267 148.8C204.267 155.869 198.536 161.6 191.467 161.6C184.398 161.6 178.667 155.869 178.667 148.8C178.667 141.731 184.398 136 191.467 136Z" fill="black"/>
</svg>
