<svg width="186" height="138" viewBox="0 0 186 338" fill="none" xmlns="http://www.w3.org/2000/svg">
<path d="M73.6107 44.064C72.6721 79.9893 66.272 101.749 59.872 114.549C55.3548 123.999 45.8551 130.057 35.3814 130.165C34.5556 130.18 33.7296 130.151 32.9067 130.08C19.3518 128.321 9.00164 117.108 8.33072 103.456C7.17194 75.5153 9.06041 47.5316 13.9627 20C15.8631 22.8246 18.2291 25.306 20.9601 27.3387C36.6231 37.6812 54.8504 43.4714 73.6107 44.064Z" fill="#3F51B5" stroke="black" stroke-width="15"/>
<path d="M177.803 103.456C177.132 117.108 166.782 128.321 153.227 130.08C152.404 130.151 151.578 130.18 150.752 130.165C140.278 130.057 130.779 123.999 126.261 114.549C119.861 101.749 113.461 79.9893 112.523 44.064C131.283 43.4714 149.51 37.6812 165.173 27.3387C167.904 25.306 170.27 22.8246 172.171 20C177.073 47.5316 178.962 75.5153 177.803 103.456Z" fill="#3F51B5"/>
<path d="M172.171 20C170.27 22.8246 167.904 25.306 165.173 27.3387C160.177 30.9572 154.726 33.901 148.96 36.0939C152.263 58.3858 153.349 80.95 152.203 103.456C151.578 113.128 146.19 121.858 137.824 126.752C141.771 128.975 146.222 130.15 150.752 130.165C151.578 130.18 152.404 130.151 153.227 130.08C166.782 128.321 177.132 117.108 177.803 103.456C178.961 75.5153 177.073 47.5316 172.171 20Z" fill="#283593"/>
<path d="M177.803 103.456C177.132 117.108 166.782 128.321 153.227 130.08C152.404 130.151 151.578 130.18 150.752 130.165C140.278 130.057 130.779 123.999 126.261 114.549C119.861 101.749 113.461 79.9893 112.523 44.064C131.283 43.4714 149.51 37.6812 165.173 27.3387C167.904 25.306 170.27 22.8246 172.171 20C177.073 47.5316 178.962 75.5153 177.803 103.456V103.456Z" stroke="black" stroke-width="15"/>
</svg>
